<svg width="275" height="192" viewBox="0 0 275 192" fill="none" xmlns="http://www.w3.org/2000/svg">
<g clip-path="url(#clip0_755_2041)">
<path d="M231.846 133.335C231.562 133.021 231.351 132.648 231.226 132.243C231.102 131.838 231.068 131.411 231.126 130.991C231.184 130.571 231.333 130.169 231.563 129.814C231.793 129.458 232.098 129.157 232.457 128.932L230.163 118.89L235.166 120.766L236.577 130.015C236.914 130.643 237.009 131.374 236.844 132.068C236.68 132.762 236.267 133.372 235.683 133.781C235.1 134.19 234.388 134.371 233.68 134.289C232.973 134.207 232.32 133.867 231.846 133.335Z" fill="#FFB8B8" style="fill:#FFB8B8;fill:color(display-p3 1.0000 0.7216 0.7216);fill-opacity:1;"/>
<path d="M231.5 125.365L227.102 116.844L227.697 95.3857L227.979 95.9825C228.309 96.6777 236.026 113.05 235.475 118.531L236.357 123.54L231.5 125.365Z" fill="#3F3D56" style="fill:#3F3D56;fill:color(display-p3 0.2471 0.2392 0.3373);fill-opacity:1;"/>
<path d="M228.632 188.343H232.159L233.837 174.71L228.632 174.71L228.632 188.343Z" fill="#FFB8B8" style="fill:#FFB8B8;fill:color(display-p3 1.0000 0.7216 0.7216);fill-opacity:1;"/>
<path d="M227.733 187.189L234.678 187.188H234.679C235.852 187.188 236.978 187.656 237.808 188.488C238.638 189.319 239.104 190.448 239.104 191.624V191.768L227.733 191.769L227.733 187.189Z" fill="#2F2E41" style="fill:#2F2E41;fill:color(display-p3 0.1843 0.1804 0.2549);fill-opacity:1;"/>
<path d="M193.787 185.657L197.185 186.603L202.446 173.92L197.431 172.522L193.787 185.657Z" fill="#FFB8B8" style="fill:#FFB8B8;fill:color(display-p3 1.0000 0.7216 0.7216);fill-opacity:1;"/>
<path d="M193.229 184.303L199.92 186.168L199.921 186.168C201.052 186.483 202.011 187.236 202.588 188.26C203.166 189.284 203.313 190.496 202.999 191.63L202.96 191.769L192.005 188.716L193.229 184.303Z" fill="#2F2E41" style="fill:#2F2E41;fill:color(display-p3 0.1843 0.1804 0.2549);fill-opacity:1;"/>
<path d="M225.116 183.028L217.999 131.956L202.626 182.739L190.539 178.603L207.863 110.603L207.977 110.595L226.125 109.33L239.237 178.9L225.116 183.028Z" fill="#2F2E41" style="fill:#2F2E41;fill:color(display-p3 0.1843 0.1804 0.2549);fill-opacity:1;"/>
<path d="M223.234 86.537C223.234 86.537 216.618 83.0775 207.701 84.519C207.701 84.519 202.954 95.9948 207.701 100.563L208.995 112.05C208.995 112.05 221.077 119.257 225.104 110.897L224.529 101.384C224.529 101.384 227.405 96.8211 225.104 93.4808C223.724 91.4403 223.066 88.9959 223.234 86.537Z" fill="#297D83" style="fill:#297D83;fill:color(display-p3 0.1608 0.4902 0.5137);fill-opacity:1;"/>
<path d="M224.072 138.786L225.233 114.637L221.947 85.9093L222.098 85.8864C226.409 85.235 227.791 92.6783 227.848 92.9954L235.352 135.514L224.072 138.786Z" fill="#3F3D56" style="fill:#3F3D56;fill:color(display-p3 0.2471 0.2392 0.3373);fill-opacity:1;"/>
<path d="M209.442 139.038L196.177 137.561L196.18 137.416C196.227 135.447 197.369 89.1719 200.568 85.8945C203.786 82.5976 209.859 84.0241 210.116 84.0868L210.244 84.1177L209.153 103.699L209.442 139.038Z" fill="#3F3D56" style="fill:#3F3D56;fill:color(display-p3 0.2471 0.2392 0.3373);fill-opacity:1;"/>
<path d="M211.886 111.38C211.484 111.512 211.058 111.555 210.638 111.504C210.218 111.453 209.815 111.311 209.456 111.087C209.096 110.863 208.791 110.563 208.56 110.208C208.329 109.853 208.179 109.451 208.12 109.032L198.032 107.051L201.775 103.232L210.781 105.698C211.491 105.645 212.195 105.855 212.761 106.288C213.327 106.721 213.715 107.347 213.851 108.048C213.987 108.748 213.863 109.474 213.5 110.088C213.138 110.702 212.563 111.162 211.886 111.38Z" fill="#FFB8B8" style="fill:#FFB8B8;fill:color(display-p3 1.0000 0.7216 0.7216);fill-opacity:1;"/>
<path d="M206.503 109.062L203.216 108.354C198.363 109.816 189.893 104.668 186.47 102.381C185.826 101.95 185.617 101.098 185.849 99.8468C186.192 98.0971 187.154 96.5305 188.559 95.4362L200.615 85.8558L203.658 85.3458L204.562 90.4791L196.88 98.7476L208.188 104.916L206.503 109.062Z" fill="#3F3D56" style="fill:#3F3D56;fill:color(display-p3 0.2471 0.2392 0.3373);fill-opacity:1;"/>
<path d="M205.202 80.1732V73.5169C205.202 70.7007 206.319 67.9999 208.306 66.0086C210.293 64.0172 212.988 62.8985 215.798 62.8985C218.608 62.8985 221.303 64.0172 223.29 66.0086C225.277 67.9999 226.393 70.7007 226.393 73.5169V80.1732C226.392 80.5514 226.242 80.9139 225.976 81.1813C225.709 81.4487 225.347 81.5992 224.97 81.5996H206.626C206.248 81.5992 205.887 81.4488 205.62 81.1813C205.353 80.9139 205.203 80.5514 205.202 80.1732Z" fill="#2F2E41" style="fill:#2F2E41;fill:color(display-p3 0.1843 0.1804 0.2549);fill-opacity:1;"/>
<path d="M215.372 81.5341C219.662 81.5341 223.14 78.0486 223.14 73.749C223.14 69.4495 219.662 65.964 215.372 65.964C211.082 65.964 207.604 69.4495 207.604 73.749C207.604 78.0486 211.082 81.5341 215.372 81.5341Z" fill="#FFB8B8" style="fill:#FFB8B8;fill:color(display-p3 1.0000 0.7216 0.7216);fill-opacity:1;"/>
<path d="M207.391 73.7191C207.316 73.6332 207.261 73.5324 207.23 73.4233C207.198 73.3143 207.189 73.1997 207.206 73.0873L208.126 66.6656C208.144 66.5349 208.194 66.4109 208.273 66.3047C208.351 66.1985 208.454 66.1135 208.573 66.0573C213.27 63.8544 218.033 63.8516 222.73 66.049C222.854 66.1082 222.961 66.1988 223.041 66.3119C223.12 66.425 223.168 66.5568 223.182 66.6944L223.796 73.1244C223.806 73.2344 223.794 73.3453 223.759 73.4501C223.724 73.5549 223.668 73.6512 223.594 73.733C223.52 73.8147 223.429 73.88 223.329 73.9247C223.228 73.9693 223.119 73.9924 223.009 73.9924H221.451C221.3 73.992 221.153 73.9488 221.026 73.8679C220.9 73.787 220.798 73.6716 220.734 73.5352L220.062 72.0915C220.019 71.998 219.946 71.9212 219.855 71.8728C219.764 71.8243 219.66 71.8068 219.558 71.8228C219.457 71.8389 219.363 71.8876 219.291 71.9617C219.22 72.0358 219.174 72.1312 219.161 72.2336L219.029 73.2981C219.004 73.4897 218.911 73.6659 218.767 73.7937C218.623 73.9215 218.437 73.9921 218.244 73.9924H207.988C207.875 73.9924 207.763 73.968 207.66 73.9208C207.557 73.8737 207.465 73.8049 207.391 73.7191Z" fill="#2F2E41" style="fill:#2F2E41;fill:color(display-p3 0.1843 0.1804 0.2549);fill-opacity:1;"/>
<path d="M174.768 12.7948H0.5V121.551H174.768V12.7948Z" fill="#E6E6E6" style="fill:#E6E6E6;fill:color(display-p3 0.9020 0.9020 0.9020);fill-opacity:1;"/>
<path d="M44.1033 33.7463H12.186V54.5379H44.1033V33.7463Z" fill="white" style="fill:white;fill-opacity:1;"/>
<path d="M83.763 33.7463H51.8457V54.5379H83.763V33.7463Z" fill="white" style="fill:white;fill-opacity:1;"/>
<path d="M123.423 33.7463H91.5054V54.5379H123.423V33.7463Z" fill="white" style="fill:white;fill-opacity:1;"/>
<path d="M163.082 33.7463H131.165V54.5379H163.082V33.7463Z" fill="white" style="fill:white;fill-opacity:1;"/>
<path d="M44.1033 63.1744H12.186V83.9659H44.1033V63.1744Z" fill="white" style="fill:white;fill-opacity:1;"/>
<path d="M83.763 63.1744H51.8457V83.9659H83.763V63.1744Z" fill="white" style="fill:white;fill-opacity:1;"/>
<path d="M123.423 63.1744H91.5054V83.9659H123.423V63.1744Z" fill="white" style="fill:white;fill-opacity:1;"/>
<path d="M163.082 63.1744H131.165V83.9659H163.082V63.1744Z" fill="white" style="fill:white;fill-opacity:1;"/>
<path d="M44.1033 92.6025H12.186V113.394H44.1033V92.6025Z" fill="white" style="fill:white;fill-opacity:1;"/>
<path d="M83.763 92.6025H51.8457V113.394H83.763V92.6025Z" fill="white" style="fill:white;fill-opacity:1;"/>
<path d="M123.423 92.6025H91.5054V113.394H123.423V92.6025Z" fill="white" style="fill:white;fill-opacity:1;"/>
<path d="M163.082 92.6025H131.165V113.394H163.082V92.6025Z" fill="white" style="fill:white;fill-opacity:1;"/>
<path d="M46.1416 25.5896C48.7857 25.5896 50.9292 23.4415 50.9292 20.7916C50.9292 18.1417 48.7857 15.9935 46.1416 15.9935C43.4975 15.9935 41.354 18.1417 41.354 20.7916C41.354 23.4415 43.4975 25.5896 46.1416 25.5896Z" fill="white" style="fill:white;fill-opacity:1;"/>
<path d="M125.297 25.5896C127.941 25.5896 130.084 23.4415 130.084 20.7916C130.084 18.1417 127.941 15.9935 125.297 15.9935C122.653 15.9935 120.509 18.1417 120.509 20.7916C120.509 23.4415 122.653 25.5896 125.297 25.5896Z" fill="white" style="fill:white;fill-opacity:1;"/>
<path d="M48.0566 0H44.2266V22.0711H48.0566V0Z" fill="#E6E6E6" style="fill:#E6E6E6;fill:color(display-p3 0.9020 0.9020 0.9020);fill-opacity:1;"/>
<path d="M127.212 0H123.382V22.0711H127.212V0Z" fill="#E6E6E6" style="fill:#E6E6E6;fill:color(display-p3 0.9020 0.9020 0.9020);fill-opacity:1;"/>
<path d="M154.341 44.1421C154.34 45.8791 153.713 47.5573 152.575 48.8681C151.438 50.1789 149.867 51.0344 148.151 51.2774C146.434 51.5204 144.688 51.1345 143.233 50.1907C141.778 49.2469 140.712 47.8085 140.23 46.1399C139.748 44.4712 139.884 42.6844 140.611 41.1078C141.339 39.5311 142.609 38.2705 144.19 37.5576C145.771 36.8447 147.555 36.7273 149.215 37.2271C150.875 37.7269 152.299 38.8103 153.226 40.2781C153.956 41.434 154.343 42.7741 154.341 44.1421Z" fill="#297D83" style="fill:#297D83;fill:color(display-p3 0.1608 0.4902 0.5137);fill-opacity:1;"/>
<path d="M153.226 40.2782L146.121 47.3972C145.675 46.7043 143.187 43.4845 143.187 43.4845C143.506 43.1616 143.846 42.8606 144.205 42.5837L146.268 45.3403L152.394 39.201C152.705 39.5329 152.983 39.8936 153.226 40.2782Z" fill="white" style="fill:white;fill-opacity:1;"/>
<path d="M75.0219 73.5702C75.0203 75.3072 74.3932 76.9853 73.2559 78.2962C72.1186 79.607 70.5475 80.4625 68.8313 80.7055C67.1151 80.9485 65.369 80.5626 63.9139 79.6188C62.4588 78.6749 61.3924 77.2366 60.9107 75.5679C60.429 73.8993 60.5644 72.1125 61.2918 70.5359C62.0193 68.9592 63.2901 67.6986 64.8706 66.9857C66.4512 66.2728 68.2354 66.1554 69.8954 66.6552C71.5554 67.155 72.9796 68.2384 73.9065 69.7062C74.6364 70.8621 75.0232 72.2022 75.0219 73.5702Z" fill="#297D83" style="fill:#297D83;fill:color(display-p3 0.1608 0.4902 0.5137);fill-opacity:1;"/>
<path d="M73.9065 69.7062L66.8017 76.8252C66.3552 76.1324 63.8674 72.9126 63.8674 72.9126C64.1863 72.5897 64.5265 72.2887 64.8858 72.0117L66.9487 74.7683L73.0745 68.6291C73.3852 68.961 73.6638 69.3216 73.9065 69.7062Z" fill="white" style="fill:white;fill-opacity:1;"/>
<path d="M35.3623 73.5702C35.3607 75.3073 34.7336 76.9854 33.5963 78.2962C32.459 79.6071 30.8879 80.4626 29.1717 80.7056C27.4554 80.9485 25.7094 80.5627 24.2543 79.6188C22.7992 78.675 21.7328 77.2366 21.2511 75.568C20.7694 73.8994 20.9047 72.1126 21.6322 70.5359C22.3597 68.9592 23.6304 67.6986 25.211 66.9857C26.7916 66.2728 28.5758 66.1554 30.2358 66.6552C31.8958 67.155 33.32 68.2384 34.2469 69.7062C34.9768 70.8622 35.3636 72.2023 35.3623 73.5702Z" fill="#297D83" style="fill:#297D83;fill:color(display-p3 0.1608 0.4902 0.5137);fill-opacity:1;"/>
<path d="M34.2469 69.7062L27.1421 76.8252C26.6955 76.1324 24.2078 72.9126 24.2078 72.9126C24.5266 72.5897 24.8668 72.2887 25.2261 72.0117L27.289 74.7683L33.4149 68.6291C33.7255 68.961 34.0041 69.3216 34.2469 69.7062Z" fill="white" style="fill:white;fill-opacity:1;"/>
<path d="M274.184 192H153.682C153.599 192 153.518 191.967 153.459 191.907C153.4 191.848 153.366 191.767 153.366 191.683C153.366 191.599 153.4 191.518 153.459 191.459C153.518 191.399 153.599 191.366 153.682 191.366H274.184C274.268 191.366 274.348 191.399 274.407 191.459C274.467 191.518 274.5 191.599 274.5 191.683C274.5 191.767 274.467 191.848 274.407 191.907C274.348 191.967 274.268 192 274.184 192Z" fill="#3F3D56" style="fill:#3F3D56;fill:color(display-p3 0.2471 0.2392 0.3373);fill-opacity:1;"/>
</g>
<defs>
<clipPath id="clip0_755_2041">
<rect width="274" height="192" fill="white" style="fill:white;fill-opacity:1;" transform="translate(0.5)"/>
</clipPath>
</defs>
</svg>
