<svg width="221" height="206" viewBox="0 0 221 206" fill="none" xmlns="http://www.w3.org/2000/svg">
<path d="M137.603 44.1862H83.4423C82.2081 44.1877 81.0248 44.6793 80.1521 45.5532C79.2794 46.4272 78.7884 47.6121 78.7869 48.848V169.388L78.1662 169.577L64.8797 173.652C64.25 173.844 63.5699 173.778 62.9886 173.469C62.4073 173.159 61.9724 172.632 61.7793 172.001L22.258 42.7286C22.0657 42.098 22.1312 41.4168 22.4402 40.8346C22.7493 40.2524 23.2765 39.8169 23.906 39.6238L44.3805 33.3458L103.737 15.1522L124.211 8.87425C124.523 8.77823 124.85 8.74467 125.175 8.77551C125.499 8.80634 125.814 8.90097 126.102 9.05396C126.39 9.20696 126.646 9.41532 126.853 9.66713C127.06 9.91894 127.216 10.2092 127.312 10.5214L137.414 43.5646L137.603 44.1862Z" fill="#F2F2F2" style="fill:#F2F2F2;fill:color(display-p3 0.9490 0.9490 0.9490);fill-opacity:1;"/>
<path d="M149.422 43.5646L137.246 3.74002C137.044 3.07647 136.712 2.45939 136.272 1.92405C135.831 1.38871 135.289 0.945594 134.677 0.620029C134.065 0.294464 133.395 0.0928251 132.706 0.0266428C132.016 -0.0395394 131.32 0.0310318 130.657 0.234316L101.871 9.05763L42.5184 27.2544L13.7325 36.0808C12.3953 36.492 11.2756 37.4177 10.6193 38.6547C9.96289 39.8917 9.82347 41.339 10.2316 42.6788L51.8446 178.783C52.1762 179.864 52.8451 180.811 53.7534 181.484C54.6616 182.157 55.7613 182.521 56.8911 182.522C57.414 182.522 57.934 182.443 58.4335 182.289L78.1662 176.241L78.7869 176.048V175.398L78.1662 175.588L58.2505 181.695C57.0701 182.055 55.7952 181.932 54.7055 181.352C53.6157 180.773 52.8001 179.784 52.4374 178.603L10.8276 42.4955C10.6479 41.9102 10.5853 41.2952 10.6433 40.6857C10.7014 40.0762 10.8789 39.4842 11.1657 38.9434C11.4525 38.4027 11.8431 37.924 12.315 37.5346C12.7868 37.1453 13.3308 36.8529 13.9156 36.6744L42.7014 27.848L102.055 9.65435L130.84 0.82793C131.284 0.692364 131.745 0.623241 132.209 0.622808C133.204 0.625046 134.173 0.946389 134.973 1.53977C135.772 2.13315 136.362 2.96738 136.654 3.92028L148.773 43.5646L148.965 44.1862H149.611L149.422 43.5646Z" fill="#3F3D56" style="fill:#3F3D56;fill:color(display-p3 0.2471 0.2392 0.3373);fill-opacity:1;"/>
<path d="M48.0752 39.7253C47.477 39.7249 46.8947 39.5325 46.4137 39.1764C45.9327 38.8203 45.5783 38.3192 45.4026 37.7466L41.405 24.6712C41.2976 24.3199 41.2603 23.951 41.2953 23.5853C41.3303 23.2196 41.4369 22.8645 41.609 22.5401C41.7811 22.2157 42.0153 21.9284 42.2983 21.6947C42.5813 21.4609 42.9075 21.2853 43.2582 21.1778L97.8626 4.43752C98.5709 4.22107 99.3361 4.29489 99.9902 4.64279C100.644 4.99068 101.134 5.58423 101.351 6.29315L105.349 19.3688C105.565 20.0781 105.491 20.8443 105.144 21.4992C104.796 22.1542 104.204 22.6443 103.496 22.8623L48.8912 39.6026C48.6268 39.6838 48.3518 39.7252 48.0752 39.7253Z" fill="#297D83" style="fill:#297D83;fill:color(display-p3 0.1608 0.4902 0.5137);fill-opacity:1;"/>
<path d="M69.0159 13.9714C72.444 13.9714 75.2231 11.1885 75.2231 7.75565C75.2231 4.32276 72.444 1.53986 69.0159 1.53986C65.5878 1.53986 62.8087 4.32276 62.8087 7.75565C62.8087 11.1885 65.5878 13.9714 69.0159 13.9714Z" fill="#297D83" style="fill:#297D83;fill:color(display-p3 0.1608 0.4902 0.5137);fill-opacity:1;"/>
<path d="M69.0159 11.6917C71.1867 11.6917 72.9465 9.92948 72.9465 7.75567C72.9465 5.58186 71.1867 3.81964 69.0159 3.81964C66.8451 3.81964 65.0853 5.58186 65.0853 7.75567C65.0853 9.92948 66.8451 11.6917 69.0159 11.6917Z" fill="white" style="fill:white;fill-opacity:1;"/>
<path d="M197.034 180.934H92.1324C91.433 180.933 90.7625 180.654 90.2679 180.159C89.7734 179.664 89.4952 178.992 89.4944 178.292V52.422C89.4952 51.7217 89.7734 51.0502 90.2679 50.5549C90.7625 50.0597 91.433 49.7811 92.1324 49.7803H197.034C197.733 49.7811 198.404 50.0597 198.898 50.555C199.393 51.0502 199.671 51.7217 199.672 52.422V178.292C199.671 178.992 199.393 179.664 198.898 180.159C198.404 180.654 197.733 180.933 197.034 180.934Z" fill="#E6E6E6" style="fill:#E6E6E6;fill:color(display-p3 0.9020 0.9020 0.9020);fill-opacity:1;"/>
<path d="M148.773 43.5646H83.4423C82.0436 43.5666 80.7028 44.1238 79.7137 45.1142C78.7247 46.1046 78.1682 47.4474 78.1662 48.848V175.588L78.7869 175.398V48.848C78.7884 47.6121 79.2794 46.4272 80.1521 45.5532C81.0248 44.6793 82.2081 44.1877 83.4423 44.1862H148.965L148.773 43.5646ZM205.724 43.5646H83.4423C82.0436 43.5666 80.7028 44.1238 79.7137 45.1142C78.7247 46.1046 78.1682 47.4474 78.1662 48.848V191.19C78.1682 192.59 78.7247 193.933 79.7137 194.923C80.7028 195.914 82.0436 196.471 83.4423 196.473H205.724C207.123 196.471 208.463 195.914 209.453 194.923C210.442 193.933 210.998 192.59 211 191.19V48.848C210.998 47.4474 210.442 46.1046 209.453 45.1142C208.463 44.1238 207.123 43.5666 205.724 43.5646ZM210.379 191.19C210.378 192.426 209.887 193.61 209.014 194.484C208.141 195.358 206.958 195.85 205.724 195.851H83.4423C82.2081 195.85 81.0248 195.358 80.1521 194.484C79.2794 193.61 78.7884 192.426 78.7869 191.19V48.848C78.7884 47.6121 79.2794 46.4272 80.1521 45.5532C81.0248 44.6793 82.2081 44.1877 83.4423 44.1862H205.724C206.958 44.1877 208.141 44.6793 209.014 45.5532C209.887 46.4272 210.378 47.6121 210.379 48.848V191.19Z" fill="#3F3D56" style="fill:#3F3D56;fill:color(display-p3 0.2471 0.2392 0.3373);fill-opacity:1;"/>
<path d="M173.136 57.2393H116.03C115.29 57.2384 114.58 56.9435 114.056 56.4191C113.532 55.8947 113.238 55.1838 113.237 54.4422V40.7674C113.238 40.0259 113.532 39.3149 114.056 38.7905C114.58 38.2661 115.29 37.9712 116.03 37.9703H173.136C173.877 37.9712 174.587 38.2661 175.11 38.7905C175.634 39.3149 175.929 40.0259 175.929 40.7674V54.4422C175.929 55.1838 175.634 55.8947 175.11 56.4191C174.587 56.9435 173.877 57.2384 173.136 57.2393Z" fill="#297D83" style="fill:#297D83;fill:color(display-p3 0.1608 0.4902 0.5137);fill-opacity:1;"/>
<path d="M144.583 38.9027C148.011 38.9027 150.79 36.1198 150.79 32.6869C150.79 29.254 148.011 26.4711 144.583 26.4711C141.155 26.4711 138.376 29.254 138.376 32.6869C138.376 36.1198 141.155 38.9027 144.583 38.9027Z" fill="#297D83" style="fill:#297D83;fill:color(display-p3 0.1608 0.4902 0.5137);fill-opacity:1;"/>
<path d="M144.583 36.4729C146.671 36.4729 148.364 34.7779 148.364 32.6869C148.364 30.596 146.671 28.9009 144.583 28.9009C142.495 28.9009 140.802 30.596 140.802 32.6869C140.802 34.7779 142.495 36.4729 144.583 36.4729Z" fill="white" style="fill:white;fill-opacity:1;"/>
</svg>
